<?xml version="1.0" standalone="no"?>
<!DOCTYPE svg PUBLIC "-//W3C//DTD SVG 20010904//EN"
 "http://www.w3.org/TR/2001/REC-SVG-20010904/DTD/svg10.dtd">
<svg version="1.0" xmlns="http://www.w3.org/2000/svg"
 width="700.000000pt" height="700.000000pt" viewBox="0 0 700.000000 700.000000"
 preserveAspectRatio="xMidYMid meet">
<metadata>
Created by potrace 1.14, written by Peter Selinger 2001-2017
</metadata>
<g transform="translate(0.000000,700.000000) scale(0.100000,-0.100000)"
fill="#000000" stroke="none">
<path d="M1743 6518 c-5 -7 -25 -40 -44 -73 -74 -131 -155 -272 -172 -300 -24
-38 -54 -91 -80 -138 -15 -26 -100 -175 -190 -330 -90 -155 -175 -302 -189
-327 -37 -65 -277 -482 -288 -500 -10 -17 -104 -179 -131 -227 -10 -17 -29
-50 -43 -72 -15 -22 -26 -43 -26 -45 0 -3 -24 -45 -53 -93 -29 -48 -56 -95
-60 -103 -8 -17 -7 -14 -202 -350 -81 -140 -157 -271 -167 -290 -11 -19 -38
-65 -59 -102 l-40 -67 202 -348 c111 -192 211 -366 224 -388 36 -65 125 -219
135 -235 44 -70 250 -434 250 -441 0 -5 5 -9 10 -9 6 0 10 -4 10 -9 0 -5 23
-49 51 -98 29 -48 62 -107 75 -130 13 -23 53 -92 89 -153 36 -61 65 -115 65
-121 0 -5 5 -9 10 -9 6 0 10 -4 10 -9 0 -7 383 -675 566 -989 l55 -92 1751 2
1752 3 133 230 c74 127 138 239 144 250 5 11 15 29 22 40 7 11 23 38 35 60 12
22 31 54 41 70 10 17 70 120 133 230 285 494 421 730 439 759 10 17 27 47 37
66 10 19 40 70 65 113 26 43 47 80 47 82 0 2 18 33 41 70 22 37 49 83 60 102
18 33 309 537 345 600 11 18 61 104 111 193 l93 161 -88 152 c-49 84 -153 264
-233 402 -79 137 -149 259 -156 270 -7 11 -16 27 -20 35 -4 8 -26 47 -48 85
-23 39 -53 90 -67 115 -27 48 -128 224 -158 275 -9 17 -93 160 -185 319 -92
159 -176 305 -187 325 -11 20 -24 41 -28 46 -4 6 -19 31 -33 57 -36 66 -428
744 -494 856 l-54 92 -1748 0 c-1387 0 -1751 -3 -1758 -12z"/>
</g>
</svg>
